<?xml version="1.0" encoding="utf-8"?>
<!-- Generator: Adobe Illustrator 17.1.0, SVG Export Plug-In . SVG Version: 6.00 Build 0)  -->
<!DOCTYPE svg PUBLIC "-//W3C//DTD SVG 1.1//EN" "http://www.w3.org/Graphics/SVG/1.1/DTD/svg11.dtd">
<svg version="1.1" id="Camada_1" xmlns="http://www.w3.org/2000/svg" xmlns:xlink="http://www.w3.org/1999/xlink" x="0px" y="0px"
	 viewBox="0 0 226.77 226.77" enable-background="new 0 0 226.77 226.77" xml:space="preserve">
<g>
	<g>
		<g>
			<path d="M37.46,176.628c0-1.415,0.247-2.692,0.743-3.833c0.495-1.141,1.167-2.118,2.016-2.932
				c0.849-0.813,1.839-1.437,2.971-1.87c1.131-0.433,2.334-0.649,3.607-0.649c1.008,0,1.905,0.097,2.692,0.291
				c0.787,0.195,1.463,0.416,2.029,0.663c0.654,0.283,1.22,0.593,1.698,0.929l-2.785,4.907c-0.283-0.212-0.593-0.415-0.928-0.609
				c-0.301-0.142-0.659-0.279-1.075-0.411c-0.416-0.133-0.889-0.199-1.419-0.199c-0.548,0-1.052,0.098-1.512,0.292
				s-0.862,0.46-1.207,0.796c-0.345,0.336-0.615,0.729-0.809,1.18c-0.195,0.451-0.292,0.934-0.292,1.446s0.102,0.994,0.305,1.445
				c0.203,0.451,0.481,0.845,0.835,1.181c0.354,0.336,0.769,0.602,1.247,0.796s0.999,0.292,1.565,0.292
				c0.565,0,1.069-0.071,1.512-0.213c0.442-0.142,0.813-0.3,1.114-0.478c0.354-0.194,0.663-0.424,0.928-0.689l2.786,4.907
				c-0.478,0.39-1.044,0.734-1.698,1.035c-0.566,0.247-1.247,0.478-2.042,0.689c-0.796,0.212-1.707,0.318-2.732,0.318
				c-1.379,0-2.653-0.226-3.82-0.677s-2.175-1.083-3.024-1.896c-0.849-0.813-1.512-1.791-1.99-2.932S37.46,178.007,37.46,176.628z"
				/>
			<path d="M52.156,176.628c0-1.273,0.243-2.476,0.729-3.607s1.149-2.118,1.99-2.958c0.84-0.84,1.826-1.503,2.958-1.989
				s2.334-0.729,3.608-0.729c1.273,0,2.476,0.243,3.607,0.729c1.131,0.486,2.118,1.149,2.958,1.989s1.503,1.826,1.99,2.958
				c0.486,1.132,0.729,2.334,0.729,3.607s-0.243,2.476-0.729,3.607c-0.487,1.132-1.15,2.118-1.99,2.958s-1.826,1.503-2.958,1.989
				c-1.132,0.486-2.334,0.729-3.607,0.729c-1.273,0-2.476-0.243-3.608-0.729s-2.118-1.149-2.958-1.989
				c-0.84-0.84-1.503-1.826-1.99-2.958S52.156,177.901,52.156,176.628z M57.726,176.628c0,0.513,0.097,0.994,0.292,1.445
				c0.194,0.451,0.459,0.845,0.795,1.181s0.729,0.602,1.181,0.796c0.451,0.194,0.933,0.292,1.446,0.292
				c0.513,0,0.995-0.098,1.445-0.292c0.451-0.194,0.845-0.46,1.181-0.796s0.601-0.729,0.796-1.181
				c0.194-0.451,0.292-0.933,0.292-1.445s-0.097-0.995-0.292-1.446c-0.195-0.45-0.46-0.844-0.796-1.18s-0.729-0.602-1.181-0.796
				c-0.451-0.194-0.933-0.292-1.445-0.292c-0.513,0-0.995,0.098-1.446,0.292c-0.451,0.194-0.845,0.46-1.181,0.796
				s-0.601,0.729-0.795,1.18C57.823,175.633,57.726,176.115,57.726,176.628z"/>
			<path d="M72.183,167.768h4.642l4.881,6.817v-6.817h5.544v17.693h-4.669l-4.854-6.791v6.791h-5.544V167.768z"/>
			<path d="M89.106,167.768h10.425v4.643h-4.775v1.963h4.695v4.403h-4.695v2.042h4.96v4.643H89.106V167.768z"/>
			<path d="M100.513,176.628c0-1.415,0.247-2.692,0.743-3.833c0.495-1.141,1.167-2.118,2.016-2.932
				c0.849-0.813,1.839-1.437,2.971-1.87c1.131-0.433,2.334-0.649,3.607-0.649c1.008,0,1.905,0.097,2.692,0.291
				c0.787,0.195,1.464,0.416,2.029,0.663c0.653,0.283,1.22,0.593,1.698,0.929l-2.786,4.907c-0.283-0.212-0.593-0.415-0.928-0.609
				c-0.301-0.142-0.659-0.279-1.075-0.411c-0.416-0.133-0.889-0.199-1.419-0.199c-0.548,0-1.052,0.098-1.512,0.292
				s-0.862,0.46-1.207,0.796c-0.345,0.336-0.615,0.729-0.809,1.18c-0.195,0.451-0.292,0.934-0.292,1.446s0.102,0.994,0.305,1.445
				c0.203,0.451,0.481,0.845,0.835,1.181c0.354,0.336,0.769,0.602,1.247,0.796s0.999,0.292,1.565,0.292
				c0.565,0,1.069-0.071,1.512-0.213c0.442-0.142,0.813-0.3,1.114-0.478c0.354-0.194,0.663-0.424,0.928-0.689l2.786,4.907
				c-0.479,0.39-1.045,0.734-1.698,1.035c-0.566,0.247-1.247,0.478-2.042,0.689c-0.796,0.212-1.707,0.318-2.732,0.318
				c-1.379,0-2.653-0.226-3.82-0.677s-2.175-1.083-3.024-1.896c-0.849-0.813-1.512-1.791-1.99-2.932
				S100.513,178.007,100.513,176.628z"/>
			<path d="M119.93,172.41h-3.263v-4.643h12.361v4.643h-3.263v13.051h-5.836V172.41z"/>
			<path d="M133.219,167.768h4.244l6.711,17.693h-5.57l-0.583-1.592h-5.358l-0.584,1.592h-5.57L133.219,167.768z M136.534,179.97
				l-1.193-3.104l-1.193,3.104H136.534z"/>
			<path d="M164.175,176.628c0-1.273,0.243-2.476,0.729-3.607s1.149-2.118,1.989-2.958s1.826-1.503,2.958-1.989
				s2.335-0.729,3.607-0.729c1.273,0,2.476,0.243,3.608,0.729c1.131,0.486,2.117,1.149,2.957,1.989s1.503,1.826,1.989,2.958
				s0.729,2.334,0.729,3.607s-0.243,2.476-0.729,3.607s-1.149,2.118-1.989,2.958s-1.826,1.503-2.957,1.989
				c-1.133,0.486-2.335,0.729-3.608,0.729c-1.272,0-2.476-0.243-3.607-0.729s-2.118-1.149-2.958-1.989s-1.503-1.826-1.989-2.958
				S164.175,177.901,164.175,176.628z M169.746,176.628c0,0.513,0.097,0.994,0.291,1.445s0.46,0.845,0.796,1.181
				s0.729,0.602,1.181,0.796s0.933,0.292,1.445,0.292s0.995-0.098,1.446-0.292s0.844-0.46,1.18-0.796s0.602-0.729,0.796-1.181
				s0.292-0.933,0.292-1.445s-0.098-0.995-0.292-1.446c-0.194-0.45-0.46-0.844-0.796-1.18s-0.729-0.602-1.18-0.796
				s-0.934-0.292-1.446-0.292s-0.994,0.098-1.445,0.292s-0.845,0.46-1.181,0.796s-0.602,0.729-0.796,1.18
				C169.843,175.633,169.746,176.115,169.746,176.628z"/>
			<path d="M183.805,167.768h6.048l-0.901,12.468h-4.245L183.805,167.768z M183.99,181.031h5.677v4.43h-5.677V181.031z"/>
		</g>
	</g>
	<g>
		<rect x="159.069" y="178.271" width="1.87" height="3.453"/>
		<path d="M162.521,176.668c0-0.665,0.068-1.31,0.2-1.936h-6.378v3.767h3.661v2.255c-0.769,0.504-1.724,0.769-2.971,0.769
			c-2.945,0-5.04-2.149-5.04-5.146v-0.053c0-2.838,2.069-5.093,4.748-5.093c1.83,0,3.157,0.637,4.483,1.751l3.024-3.634
			c-1.963-1.698-4.271-2.706-7.534-2.706c-5.756,0-10,4.244-10,9.656v0.053c0,5.624,4.324,9.603,10.107,9.603
			c3.369,0,6.101-1.247,8.064-2.865v-0.231c-0.674-0.754-1.22-1.614-1.635-2.581C162.764,179.144,162.521,177.941,162.521,176.668z"
			/>
	</g>
</g>
<g>
	<linearGradient id="SVGID_1_" gradientUnits="userSpaceOnUse" x1="139.1099" y1="129.1835" x2="174.8491" y2="93.4443">
		<stop  offset="0" style="stop-color:#C23039"/>
		<stop  offset="0.4093" style="stop-color:#421C52"/>
		<stop  offset="0.8853" style="stop-color:#1E3516"/>
	</linearGradient>
	<path fill="url(#SVGID_1_)" d="M178.731,111.597l-6.07-16.8l-1.035-2.863c-0.796-2.204-1.904-3.856-3.296-4.912
		c-0.472-0.359-0.977-0.655-1.5-0.882c-0.052-0.022-0.112-0.042-0.174-0.063l-0.336-0.119c-0.921-0.367-1.896-0.539-2.936-0.535
		c-1.239,0.005-2.57,0.262-4.03,0.79l-7.304,2.639l-3.404,1.23l-14.301,5.167l-1.187,0.425l-11.79,4.224
		c-0.074,1.121-0.082,2.415-0.024,3.859c0.078,2.001,0.449,4.043,1.104,6.08l0.107,0.271l0.23,0.584
		c1.351,3.434,2.976,5.646,4.831,6.575c2.068,1.035,4.276,1.121,6.771,0.254l7.11-2.484l14.197-5.002l0.014,0.038l5.776,15.986
		l1.835,5.079l0.065,0.158c0.188,0.498,0.397,0.957,0.621,1.366c0.496,0.911,1.104,1.684,1.807,2.3
		c0.591,0.516,1.256,0.943,1.975,1.267c1.892,0.853,4.634,0.718,8.149-0.4l0.875-0.278c1.993-0.777,3.812-1.777,5.414-2.979
		c1.151-0.861,2.145-1.68,2.966-2.442l-1.345-3.722L178.731,111.597z"/>
	<linearGradient id="SVGID_2_" gradientUnits="userSpaceOnUse" x1="62.8065" y1="136.5801" x2="154.4837" y2="44.903">
		<stop  offset="0" style="stop-color:#C23039"/>
		<stop  offset="0.4093" style="stop-color:#421C52"/>
		<stop  offset="0.8853" style="stop-color:#1E3516"/>
	</linearGradient>
	<path fill="url(#SVGID_2_)" d="M156.049,46.523c-1.154-1.114-2.519-2.43-2.646-2.544c-0.126-0.121-2.756-2.496-3.995-3.499
		c-4.554-3.685-9.573-6.737-14.915-9.067c0-0.001,0-0.002,0-0.003c-0.461-0.201-0.924-0.396-1.389-0.587
		c-0.247-0.101-0.497-0.197-0.745-0.295c-0.337-0.133-0.675-0.264-1.015-0.391c-0.268-0.101-0.536-0.201-0.806-0.298
		c-0.456-0.164-0.915-0.324-1.375-0.478c-0.303-0.101-0.607-0.199-0.912-0.296c-0.359-0.114-0.718-0.227-1.079-0.335
		c-0.272-0.082-0.545-0.162-0.819-0.241c-0.42-0.12-0.842-0.235-1.265-0.347c-0.331-0.087-0.663-0.172-0.996-0.254
		c-0.397-0.098-0.795-0.194-1.194-0.284c-0.269-0.061-0.538-0.12-0.807-0.178c-0.417-0.089-0.836-0.174-1.256-0.255
		c-0.042-0.008-0.085-0.016-0.127-0.024c-0.176-0.036-0.353-0.071-0.556-0.108c-0.031-0.006-0.062-0.01-0.092-0.016
		c-0.035-0.006-0.07-0.011-0.105-0.017c-0.006-0.001-0.013-0.003-0.019-0.004c-0.466-0.083-0.932-0.162-1.4-0.235
		c-0.151-0.024-0.303-0.045-0.454-0.068c-0.056-0.008-0.111-0.019-0.167-0.027c-0.049-0.007-0.098-0.013-0.148-0.02
		c0,0-0.001,0-0.001,0c-0.432-0.062-0.864-0.119-1.297-0.172c-0.2-0.025-0.4-0.052-0.601-0.075c-0.069-0.008-0.138-0.013-0.206-0.02
		l-0.001,0c-0.085-0.009-0.171-0.017-0.256-0.025c-0.433-0.045-0.866-0.091-1.3-0.128c-0.237-0.02-0.474-0.038-0.711-0.056
		c-0.001,0-0.001,0-0.002,0c-0.001,0-0.001,0-0.002,0c0,0-0.001,0-0.001,0c-0.451-0.034-0.902-0.062-1.354-0.086
		c-0.197-0.011-0.394-0.024-0.591-0.033c-0.109-0.005-0.219-0.005-0.328-0.01c-0.001,0-0.002,0-0.003,0
		c-0.274-0.011-0.549-0.017-0.824-0.024c-0.001,0-0.002,0-0.003,0c-0.22-0.006-0.44-0.016-0.66-0.019
		c-0.216-0.003-0.431-0.004-0.647-0.005c-0.05,0-0.101,0.001-0.152,0.001c-0.002,0-0.004,0-0.005,0
		c-0.254-0.001-0.508,0.001-0.763,0.004c-0.145,0.001-0.291,0.001-0.436,0.002c-0.022,0-0.043,0-0.065,0
		c-0.192,0.003-0.384,0.004-0.576,0.009c-0.169,0.004-0.339,0.015-0.508,0.02c-0.289,0.01-0.578,0.021-0.867,0.035
		c-0.002,0-0.003,0-0.005,0c-0.163,0.008-0.325,0.011-0.488,0.02c-0.188,0.01-0.376,0.024-0.563,0.036
		c-0.112,0.007-0.223,0.017-0.335,0.025l-0.001,0c-0.315,0.022-0.629,0.045-0.944,0.071c-0.001,0-0.002,0-0.004,0
		c-0.071,0.006-0.143,0.01-0.214,0.016c-0.185,0.016-0.371,0.031-0.556,0.048c-0.278,0.027-0.557,0.062-0.835,0.092
		c-0.241,0.026-0.482,0.051-0.724,0.08c-0.001,0-0.001,0-0.001,0c-0.118,0.014-0.235,0.024-0.352,0.039
		c-0.154,0.019-0.308,0.042-0.462,0.063c-0.178,0.024-0.357,0.053-0.535,0.078c-0.002,0-0.004,0-0.006,0.001
		c-0.24,0.034-0.479,0.069-0.719,0.105c-0.108,0.017-0.217,0.03-0.325,0.047c-0.179,0.029-0.359,0.056-0.538,0.086
		c-0.249,0.042-0.497,0.092-0.746,0.136c-0.001,0-0.002,0-0.003,0c-0.323,0.058-0.646,0.114-0.968,0.176
		c-0.001,0-0.002,0-0.003,0.001c-0.076,0.015-0.151,0.026-0.227,0.041c-0.115,0.023-0.229,0.049-0.344,0.072
		c-0.56,0.115-1.121,0.238-1.681,0.368l-0.001,0c-0.022,0.005-0.044,0.009-0.066,0.014c-0.024,0.006-0.047,0.012-0.071,0.018
		c-0.13,0.03-0.259,0.06-0.389,0.091c-0.493,0.119-0.986,0.249-1.478,0.379c-0.125,0.032-0.251,0.062-0.376,0.096l0,0
		c-0.037,0.01-0.075,0.018-0.112,0.028c-0.067,0.019-0.134,0.039-0.201,0.058c-0.413,0.115-0.825,0.24-1.237,0.364l-0.002,0.001
		c-0.032,0.01-0.064,0.019-0.096,0.028c-0.154,0.047-0.309,0.089-0.464,0.136c-0.001,0-0.001,0-0.002,0
		c-0.065,0.019-0.13,0.037-0.195,0.057c-0.063,0.019-0.125,0.042-0.187,0.062c-0.045,0.014-0.09,0.028-0.134,0.042
		c-0.659,0.21-1.318,0.426-1.975,0.658c-2.635,0.931-5.172,2.014-7.605,3.237c-0.973,0.489-1.929,1.001-2.869,1.534
		c-0.939,0.533-1.861,1.088-2.766,1.663c-0.905,0.575-1.792,1.171-2.661,1.786c-0.869,0.615-1.72,1.251-2.553,1.905
		c-0.833,0.654-1.647,1.327-2.443,2.018c-0.796,0.691-1.573,1.4-2.33,2.126c-1.515,1.452-2.954,2.973-4.313,4.556
		C45.92,64.359,40.336,86.349,46.065,107.581c0.43,1.592,0.923,3.181,1.481,4.761c0.558,1.581,1.172,3.127,1.838,4.636
		c8.875,20.121,27.031,33.727,47.543,37.51c2.051,0.378,4.126,0.658,6.218,0.837c1.046,0.089,2.096,0.153,3.149,0.191
		c1.053,0.038,2.11,0.05,3.169,0.036c1.059-0.014,2.12-0.054,3.183-0.121c1.063-0.067,2.127-0.16,3.193-0.281
		c1.065-0.12,2.131-0.268,3.197-0.443c1.066-0.175,2.131-0.378,3.196-0.608c2.661-0.576,5.316-1.326,7.951-2.256
		c0.657-0.232,1.306-0.477,1.95-0.728c0.044-0.017,0.087-0.035,0.131-0.052c0.061-0.024,0.124-0.045,0.185-0.069
		c0.063-0.025,0.125-0.052,0.187-0.078c0,0,0.001,0,0.001,0c0.15-0.06,0.297-0.125,0.447-0.185c0.031-0.013,0.061-0.026,0.092-0.038
		c0.001,0,0.001-0.001,0.001-0.001c0.399-0.163,0.798-0.324,1.191-0.494c0.064-0.027,0.129-0.053,0.192-0.081
		c0.035-0.015,0.07-0.032,0.105-0.048l0,0c0.119-0.052,0.235-0.107,0.353-0.161c0.46-0.206,0.92-0.412,1.374-0.627
		c0.005-0.002,0.009-0.004,0.014-0.006c0.12-0.057,0.24-0.115,0.36-0.173c0.022-0.011,0.045-0.02,0.067-0.031
		c0.02-0.01,0.04-0.02,0.061-0.03c0,0,0,0,0.001,0c0.517-0.25,1.031-0.507,1.539-0.769c0.104-0.054,0.209-0.106,0.313-0.16
		c0.068-0.036,0.135-0.074,0.203-0.11c0.001,0,0.002-0.001,0.002-0.001c0.291-0.154,0.577-0.313,0.864-0.471
		c0.001,0,0.002-0.001,0.002-0.001c0.221-0.122,0.446-0.239,0.665-0.363c0.158-0.089,0.315-0.18,0.473-0.271
		c0.095-0.055,0.188-0.112,0.282-0.167c0.209-0.123,0.417-0.246,0.625-0.37c0.002-0.001,0.003-0.002,0.005-0.003
		c0.155-0.092,0.312-0.182,0.466-0.276c0.133-0.081,0.267-0.16,0.399-0.242c0.1-0.062,0.198-0.128,0.298-0.19
		c0.001,0,0.001-0.001,0.002-0.001c0.206-0.129,0.409-0.261,0.613-0.393c0.236-0.151,0.475-0.299,0.708-0.453
		c0.156-0.103,0.309-0.208,0.463-0.312c0.059-0.04,0.117-0.082,0.177-0.122c0.001-0.001,0.002-0.001,0.003-0.002
		c0.262-0.177,0.521-0.357,0.779-0.538l0.001-0.001c0.092-0.064,0.185-0.126,0.277-0.191c0.154-0.109,0.308-0.216,0.461-0.326
		c0.132-0.095,0.261-0.195,0.392-0.291c0.001-0.001,0.003-0.002,0.004-0.003c0.234-0.171,0.466-0.344,0.696-0.518
		c0.135-0.102,0.274-0.2,0.408-0.303c0.153-0.117,0.302-0.236,0.454-0.354c0.132-0.103,0.261-0.209,0.392-0.313
		c0.2-0.158,0.399-0.316,0.596-0.476c0.001-0.001,0.003-0.002,0.004-0.003c0.039-0.032,0.079-0.063,0.119-0.095
		c0.167-0.136,0.335-0.272,0.501-0.41c0.169-0.141,0.334-0.287,0.502-0.43c0.001-0.001,0.001-0.001,0.001-0.001
		c0.21-0.179,0.42-0.356,0.627-0.537c0.001-0.001,0.002-0.002,0.003-0.002c0.082-0.072,0.167-0.141,0.249-0.213
		c0.148-0.131,0.293-0.265,0.44-0.396c0.337-0.303,0.67-0.609,1-0.918c0,0,0,0,0,0l0.001-0.001c0-0.001,0.001-0.001,0.001-0.001
		c0.173-0.163,0.347-0.325,0.518-0.49c0.314-0.302,0.623-0.609,0.931-0.916c0.061-0.06,0.123-0.119,0.183-0.18c0,0,0,0,0,0
		c0.049-0.049,0.1-0.096,0.148-0.145c0.142-0.144,0.28-0.291,0.42-0.436c0.303-0.313,0.604-0.629,0.901-0.948
		c0,0,0.001-0.001,0.001-0.001c0.034-0.036,0.069-0.072,0.103-0.108c0.038-0.042,0.075-0.085,0.113-0.126
		c0.104-0.112,0.208-0.225,0.311-0.338c0.318-0.351,0.632-0.705,0.942-1.062c0.004-0.005,0.008-0.01,0.013-0.015
		c0.023-0.027,0.048-0.052,0.071-0.079c0.02-0.024,0.042-0.047,0.062-0.07c0.057-0.067,0.11-0.129,0.162-0.19
		c1.005-2.206,1.302-4.64,0.91-6.974c-0.238-1.415-0.726-2.792-1.466-4.059c-0.617-1.056-1.408-2.035-2.37-2.894
		c-1.449-1.295-3.126-2.171-4.883-2.641c-3.101-0.83-6.454-0.392-9.253,1.274c-0.511,0.304-1.003,0.648-1.472,1.034
		c-0.416,0.46-0.842,0.908-1.276,1.348c-0.301,0.304-0.608,0.602-0.917,0.896l-0.197,0.07c-0.087,0.081-0.173,0.163-0.261,0.244
		c-0.131,0.12-0.262,0.239-0.395,0.358c-0.178,0.159-0.356,0.318-0.536,0.474c-0.148,0.128-0.299,0.253-0.449,0.38
		c-0.172,0.144-0.342,0.29-0.517,0.432c-0.115,0.094-0.234,0.184-0.35,0.276c-0.01,0.008-0.019,0.015-0.029,0.023
		c-0.255,0.202-0.511,0.402-0.771,0.599c-0.076,0.056-0.151,0.113-0.227,0.169c-0.041,0.03-0.081,0.06-0.122,0.09
		c-0.23,0.17-0.462,0.338-0.696,0.504c-0.086,0.06-0.172,0.121-0.259,0.182c-0.068,0.046-0.135,0.092-0.202,0.138
		c-0.213,0.146-0.428,0.291-0.643,0.434c-0.078,0.051-0.155,0.103-0.233,0.154c-0.109,0.071-0.22,0.14-0.33,0.209
		c-0.233,0.148-0.465,0.295-0.701,0.439c-0.022,0.014-0.044,0.028-0.066,0.041c-0.136,0.082-0.274,0.162-0.412,0.242
		c-0.014,0.008-0.028,0.016-0.042,0.024c-0.245,0.144-0.489,0.289-0.738,0.429c-0.115,0.064-0.231,0.126-0.348,0.188
		c-0.061,0.033-0.121,0.066-0.182,0.099c-0.213,0.116-0.426,0.232-0.642,0.344c-0.092,0.047-0.184,0.093-0.276,0.14
		c-0.108,0.054-0.215,0.108-0.323,0.161c-0.023,0.011-0.045,0.023-0.068,0.034c-0.167,0.083-0.335,0.166-0.503,0.248
		c-0.126,0.06-0.252,0.119-0.379,0.178c-0.111,0.051-0.222,0.102-0.333,0.152c-0.051,0.023-0.101,0.046-0.152,0.069
		c-0.118,0.053-0.236,0.106-0.354,0.16c-0.134,0.059-0.268,0.118-0.402,0.176c-0.225,0.095-0.45,0.187-0.676,0.279
		c-0.071,0.029-0.142,0.058-0.213,0.088c-0.123,0.05-0.245,0.1-0.369,0.149c-0.42,0.164-0.843,0.323-1.271,0.474
		c-4.038,1.426-8.15,2.188-12.215,2.342c-1.355,0.051-2.705,0.035-4.046-0.046c-0.67-0.041-1.338-0.098-2.003-0.171
		c-14.63-1.609-27.839-11-33.744-25.361c-0.268-0.653-0.522-1.316-0.759-1.989c-0.238-0.673-0.457-1.348-0.658-2.024
		c-4.423-14.884-0.041-30.488,10.334-40.927c0.472-0.475,0.955-0.938,1.452-1.391c0.992-0.905,2.033-1.766,3.12-2.577
		c1.028-0.767,2.102-1.484,3.211-2.16c2.409-1.466,5.001-2.712,7.766-3.689c0.428-0.151,0.857-0.293,1.287-0.429
		c0.127-0.04,0.254-0.078,0.381-0.116c0.074-0.021,0.147-0.043,0.22-0.065c0.234-0.07,0.468-0.14,0.702-0.207
		c0.141-0.04,0.282-0.078,0.423-0.116c0.125-0.032,0.251-0.065,0.376-0.098c0.054-0.014,0.107-0.028,0.161-0.042
		c0.118-0.031,0.236-0.061,0.355-0.092c0.136-0.033,0.271-0.067,0.407-0.099c0.182-0.042,0.365-0.082,0.547-0.123
		c0.025-0.005,0.049-0.011,0.074-0.016c0.117-0.026,0.235-0.052,0.352-0.078c0.101-0.021,0.202-0.043,0.303-0.064
		c0.239-0.048,0.477-0.091,0.716-0.135c0.198-0.037,0.395-0.076,0.593-0.109c0.281-0.048,0.562-0.088,0.844-0.13
		c0.016-0.002,0.032-0.005,0.048-0.007c0.157-0.024,0.315-0.049,0.472-0.07c0.026-0.003,0.052-0.006,0.078-0.01
		c0.274-0.036,0.548-0.067,0.822-0.098c0.13-0.015,0.259-0.031,0.389-0.044c0.093-0.01,0.186-0.018,0.278-0.027
		c0.258-0.024,0.516-0.046,0.773-0.066c0.081-0.006,0.163-0.013,0.244-0.019c0.105-0.007,0.21-0.014,0.315-0.021
		c0.286-0.018,0.572-0.032,0.858-0.045c0.05-0.002,0.1-0.004,0.151-0.007c0.094-0.004,0.189-0.007,0.283-0.011
		c0.326-0.01,0.651-0.016,0.976-0.018c0.012,0,0.025,0,0.037,0c0.148-0.001,0.297-0.005,0.446-0.005
		c0.225,0.001,0.449,0.007,0.674,0.012c0.196,0.004,0.392,0.007,0.588,0.014c0.239,0.008,0.477,0.02,0.715,0.032
		c0.177,0.009,0.355,0.019,0.532,0.031c0.248,0.016,0.495,0.034,0.742,0.054c0.159,0.013,0.318,0.028,0.476,0.043
		c0.263,0.025,0.526,0.05,0.788,0.08c0.101,0.012,0.202,0.026,0.304,0.038c0.982,0.119,1.957,0.274,2.924,0.463
		c0.087,0.017,0.175,0.033,0.262,0.051c0.199,0.04,0.397,0.084,0.595,0.128c0.101,0.022,0.202,0.042,0.303,0.065
		c0.09,0.021,0.181,0.041,0.271,0.062c0.308,0.071,0.614,0.145,0.92,0.224c0.056,0.014,0.112,0.03,0.168,0.044
		c1.412,0.369,2.802,0.811,4.164,1.324c0.016,0.006,0.032,0.012,0.048,0.018c0.337,0.127,0.671,0.259,1.004,0.395
		c0.023,0.01,0.046,0.019,0.069,0.028c1.728,0.709,3.406,1.534,5.024,2.469c0.002,0.001,0.005,0.003,0.007,0.004
		c0.323,0.187,0.643,0.378,0.961,0.573c1.179,0.725,2.319,1.512,3.423,2.353l2.876,2.606c0.047,0.043,0.099,0.081,0.147,0.124
		c0.419,0.368,0.86,0.712,1.321,1.016c0.307,0.203,0.62,0.38,0.935,0.545c0.698,0.364,1.413,0.64,2.138,0.811
		c0.882,0.207,1.79,0.283,2.702,0.224c1.478-0.095,3.05-0.719,4.696-1.858c1.01-0.698,2.048-1.59,3.11-2.675l0.027,0.024
		c0.077-0.078,0.153-0.157,0.23-0.242c0.326-0.36,0.636-0.727,0.937-1.099c1.237-1.526,2.265-3.144,3.057-4.83
		c0.251-0.533,0.476-1.04,0.688-1.535c0.455-1.065,0.827-2.048,1.097-2.93C157.676,48.095,156.923,47.367,156.049,46.523z"/>
</g>
</svg>
